<svg width="745" height="186" viewBox="0 0 745 186" fill="none" xmlns="http://www.w3.org/2000/svg">
<path fill-rule="evenodd" clip-rule="evenodd" d="M151.379 140.512C153.018 161.564 153.018 171.433 153.018 182.204H104.306C104.306 179.858 104.348 177.712 104.39 175.535C104.522 168.769 104.66 161.714 103.564 147.466C102.115 126.606 93.131 121.971 76.613 121.971H61.979H0V84.018H78.931C99.796 84.018 110.229 77.671 110.229 60.868C110.229 46.092 99.796 37.138 78.931 37.138H0V0H87.625C134.861 0 158.334 22.308 158.334 57.943C158.334 84.597 141.816 101.98 119.502 104.877C138.338 108.644 149.35 119.363 151.379 140.512Z" fill="url(#paint0_linear_17_13)"/>
<path fill-rule="evenodd" clip-rule="evenodd" d="M151.379 140.512C153.018 161.564 153.018 171.433 153.018 182.204H104.306C104.306 179.858 104.348 177.712 104.39 175.535C104.522 168.769 104.66 161.714 103.564 147.466C102.115 126.606 93.131 121.971 76.613 121.971H61.979H0V84.018H78.931C99.796 84.018 110.229 77.671 110.229 60.868C110.229 46.092 99.796 37.138 78.931 37.138H0V0H87.625C134.861 0 158.334 22.308 158.334 57.943C158.334 84.597 141.816 101.98 119.502 104.877C138.338 108.644 149.35 119.363 151.379 140.512Z" fill="white"/>
<path d="M0 182.204V153.912H51.506C60.109 153.912 61.977 160.292 61.977 164.097V182.204H0Z" fill="url(#paint1_linear_17_13)"/>
<path d="M0 182.204V153.912H51.506C60.109 153.912 61.977 160.292 61.977 164.097V182.204H0Z" fill="white"/>
<path d="M0 182.207V153.914H51.506C60.109 153.914 61.977 160.294 61.977 164.099V182.207H0Z" fill="white"/>
<path d="M740.943 53.308H692.548L670.523 84.018L649.079 53.308H597.206L643.862 116.757L593.148 182.523H641.544L667.335 147.467L693.127 182.523H745L693.996 114.728L740.943 53.308Z" fill="white"/>
<path d="M259.716 136.458C255.369 146.598 247.255 150.944 234.504 150.944C220.304 150.944 208.713 143.411 207.553 127.477H298.259V114.439C298.259 79.383 275.365 49.832 232.186 49.832C191.905 49.832 161.766 79.093 161.766 119.944C161.766 161.084 191.325 186 232.765 186C266.961 186 290.724 169.486 297.389 139.934L259.716 136.458ZM208.133 104.878C209.872 92.71 216.537 83.439 231.606 83.439C245.516 83.439 253.051 93.29 253.631 104.878H208.133Z" fill="white"/>
<path d="M436.111 75.327C430.604 60.261 418.723 49.832 395.829 49.832C376.413 49.832 362.503 58.523 355.548 72.719V53.308H308.602V182.523H355.548V119.075C355.548 99.663 361.054 86.916 376.413 86.916C390.613 86.916 394.091 96.187 394.091 113.86V182.523H441.037V119.075C441.037 99.663 446.253 86.916 461.902 86.916C476.102 86.916 479.29 96.187 479.29 113.86V182.523H526.236V101.402C526.236 74.458 515.804 49.832 480.159 49.832C458.425 49.832 443.066 60.841 436.111 75.327Z" fill="white"/>
<path d="M541.591 53.308V182.524H588.538V53.308H541.591ZM541.301 41.14H588.827V0H541.301V41.14Z" fill="white"/>
<defs>
<linearGradient id="paint0_linear_17_13" x1="79.167" y1="0" x2="79.167" y2="182.204" gradientUnits="userSpaceOnUse">
<stop stop-color="white"/>
<stop offset="1" stop-color="white" stop-opacity="0"/>
</linearGradient>
<linearGradient id="paint1_linear_17_13" x1="30.988" y1="153.912" x2="30.988" y2="182.204" gradientUnits="userSpaceOnUse">
<stop stop-color="white"/>
<stop offset="1" stop-color="white" stop-opacity="0"/>
</linearGradient>
</defs>
</svg>
